
<svg width="183px" height="160px" viewBox="0 0 183 160" version="1.1" xmlns="http://www.w3.org/2000/svg" xmlns:xlink="http://www.w3.org/1999/xlink">
    <!-- Generator: Sketch 45 (43475) - http://www.bohemiancoding.com/sketch -->
    <desc>Created with Sketch.</desc>
    <defs></defs>
    <g id="Symbols" stroke="none" stroke-width="1" fill="none" fill-rule="evenodd" stroke-linecap="round" opacity="0.342350746">
        <g id="footer" stroke="#8D8D8D" stroke-width="5.03999931">
            <g id="Group-3" transform="translate(-35.000000, -38.000000)">
                <path d="M70.4827586,198.84878 L70.4827586,166.546341" id="Stroke-1"></path>
                <path d="M70.4827586,139.278049 L70.4827586,105.297561" id="Stroke-2"></path>
                <path d="M29.3678161,153.121951 L56.637931,153.121951" id="Stroke-3"></path>
                <path d="M83.908046,153.121951 L111.178161,153.121951" id="Stroke-4"></path>
                <path d="M41.1149425,182.068293 L60.4137931,162.770732" id="Stroke-5"></path>
                <path d="M80.1321839,143.473171 L134.672414,88.9365854" id="Stroke-6"></path>
                <path d="M0,82.6439024 L60.8333333,143.473171" id="Stroke-7"></path>
                <path d="M80.1321839,162.770732 L99.4310345,182.068293" id="Stroke-9"></path>
                <path d="M160.683908,191.717073 L160.683908,172" id="Stroke-11"></path>
                <path d="M166.137931,194.234146 L197.603448,162.770732" id="Stroke-15"></path>
                <path d="M143.902299,182.907317 L155.229885,194.234146" id="Stroke-16"></path>
                <path d="M160.683908,174.517073 L160.683908,80.9658537" id="Stroke-19"></path>
                <path d="M160.683908,44.8878049 L160.683908,0" id="Stroke-20"></path>
                <path d="M106.563218,62.9268293 L142.643678,62.9268293" id="Stroke-22"></path>
                <path d="M178.724138,62.9268293 L214.804598,62.9268293" id="Stroke-23"></path>
                <path d="M122.505747,101.521951 L148.097701,75.9317073" id="Stroke-25"></path>
                <path d="M173.270115,50.3414634 L213.545977,10.0682927" id="Stroke-26"></path>
                <path d="M122.505747,24.7512195 L148.097701,50.3414634" id="Stroke-28"></path>
                <path d="M173.270115,75.9317073 L198.862069,101.521951" id="Stroke-29"></path>
            </g>
        </g>
    </g>
</svg>