
<svg width="131px" height="29px" viewBox="0 0 131 29" version="1.1" xmlns="http://www.w3.org/2000/svg" xmlns:xlink="http://www.w3.org/1999/xlink">
    <!-- Generator: Sketch 45 (43475) - http://www.bohemiancoding.com/sketch -->
    <desc>Created with Sketch.</desc>
    <defs></defs>
    <g id="Symbols" stroke="none" stroke-width="1" fill="none" fill-rule="evenodd">
        <g id="footer" transform="translate(-53.000000, -66.000000)" fill="#FEFEFE">
            <g id="Page-1" transform="translate(53.000000, 66.000000)">
                <path d="M21.4404061,28.0668149 C21.1557818,28.3406111 20.8146967,28.4751889 20.4202446,28.4751889 L16.7827774,28.4751889 C16.3852315,28.4751889 16.0395058,28.4071265 15.7417332,28.2710019 C15.4447339,28.1356507 15.1469612,27.820089 14.8507354,27.3243168 L6.3862571,12.6971042 C6.26173398,12.4991047 6.15035926,12.3993316 6.05213295,12.3993316 C5.92760983,12.3993316 5.86573499,12.4991047 5.86573499,12.6971042 L5.86573499,27.7319173 C5.86573499,27.9306903 5.79303205,28.1039398 5.643759,28.251666 C5.49525938,28.4009391 5.32200982,28.4751889 5.12401033,28.4751889 L0.743271536,28.4751889 C0.544498607,28.4751889 0.372022486,28.4009391 0.223522866,28.251666 C0.0750232456,28.1039398 0,27.9306903 0,27.7319173 L0,2.30213083 C0,1.90690528 0.136124652,1.5720077 0.410694262,1.29975839 C0.681396694,1.02750909 1.01552084,0.891384438 1.41151983,0.891384438 L5.16113523,0.891384438 C5.53315772,0.891384438 5.82938352,0.983423265 6.05213295,1.16982123 C6.27642925,1.35544575 6.49840525,1.64703094 6.72038124,2.04380336 L15.5189837,17.3377174 C15.6427334,17.5357169 15.7417332,17.6347166 15.8167564,17.6347166 C15.9397327,17.6347166 16.0016075,17.5233419 16.0016075,17.299819 L16.0016075,1.59675763 C16.0016075,1.39953158 16.0758573,1.23169607 16.2243569,1.09557142 C16.3720831,0.959446764 16.5461061,0.891384438 16.7441056,0.891384438 L21.1248444,0.891384438 C21.3236173,0.891384438 21.4960934,0.959446764 21.6453665,1.09557142 C21.7930927,1.23169607 21.8673425,1.39953158 21.8673425,1.59675763 L21.8673425,27.0644425 C21.8673425,27.4604415 21.7242569,27.7937922 21.4404061,28.0668149 Z M33.5117236,17.2092497 C33.3725052,17.3283588 33.2116307,17.3871399 33.0283264,17.3871399 L26.3303748,17.3871399 C26.1462972,17.3871399 25.9854226,17.3283588 25.8469776,17.2092497 C25.7077592,17.0909141 25.6389235,16.9354535 25.6389235,16.7451884 L25.6389235,13.8950785 C25.6389235,13.7048134 25.7077592,13.5447122 25.8469776,13.4132282 C25.9854226,13.283291 26.1462972,13.217549 26.3303748,13.217549 L33.0283264,13.217549 C33.2116307,13.217549 33.3725052,13.283291 33.5117236,13.4132282 C33.6493952,13.5447122 33.7197778,13.7048134 33.7197778,13.8950785 L33.7197778,16.7451884 C33.7197778,16.9354535 33.6493952,17.0909141 33.5117236,17.2092497 Z M54.2638495,5.79202659 C54.1161233,5.93975277 53.9413268,6.01400258 53.7441008,6.01400258 L46.2077451,6.01400258 C45.3414973,6.01400258 44.7281629,6.19498649 44.3700623,6.55231371 C44.0104147,6.91118779 43.8325246,7.57402203 43.8325246,8.53926956 L43.8325246,11.8797376 L53.4471015,11.8797376 C53.645101,11.8797376 53.8183506,11.9547608 53.9668502,12.1032604 C54.1161233,12.2517601 54.1888262,12.4250096 54.1888262,12.6230091 L54.1888262,16.1498751 C54.1888262,16.3478746 54.1161233,16.5203507 53.9668502,16.6688503 C53.8183506,16.8181234 53.645101,16.8923732 53.4471015,16.8923732 L43.8325246,16.8923732 L43.8325246,27.732072 C43.8325246,27.9308449 43.7567279,28.1040945 43.6082283,28.2518207 C43.4574083,28.4003203 43.2849322,28.4753436 43.0846124,28.4753436 L38.2313045,28.4753436 C38.0317582,28.4753436 37.8569617,28.4003203 37.7069152,28.2518207 C37.5568688,28.1040945 37.4841658,27.9308449 37.4841658,27.732072 L37.4841658,8.53926956 C37.4841658,6.85627386 37.7324386,5.49425391 38.2305311,4.45475657 C38.7278501,3.41603267 39.3930047,2.61243316 40.2290885,2.04241118 C41.062852,1.47316264 42.0327401,1.08953862 43.137206,0.891539125 C44.2432188,0.693539632 45.3909972,0.59376645 46.5782207,0.59376645 C47.5682181,0.59376645 48.4422003,0.613102338 49.1962999,0.650227243 C49.951173,0.686578712 50.6124604,0.730664537 51.1840292,0.780937846 C51.7509574,0.829664284 52.2405421,0.879164157 52.6489161,0.927890595 C53.05729,0.978163904 53.4215782,1.02766378 53.7441008,1.07716365 C54.2390995,1.15141346 54.4865989,1.39891283 54.4865989,1.81888832 L54.4865989,5.27227792 C54.4865989,5.47027741 54.4123491,5.64352697 54.2638495,5.79202659 Z M70.301267,11.6924888 C70.2022673,11.8417619 70.0653692,11.9175586 69.8944399,11.9175586 L69.5958938,11.9175586 C68.6801462,11.9175586 67.8262733,12.0413083 67.0342754,12.2888076 C66.2422774,12.5355336 65.4990059,12.8433609 64.8067811,13.2138365 L64.8067811,27.6971901 C64.8067811,27.8951896 64.7333047,28.0746266 64.5840316,28.2347278 C64.435532,28.3956024 64.261509,28.4752662 64.0650564,28.4752662 L59.5729429,28.4752662 C59.3733965,28.4752662 59.1962798,28.3956024 59.0346318,28.2339543 C58.8737572,28.0738532 58.7925465,27.8936427 58.7925465,27.6956432 L58.7925465,7.9444203 C58.7925465,7.74642081 58.8675697,7.57394468 59.0152959,7.42467163 C59.1645689,7.27694544 59.3370451,7.20269563 59.5350446,7.20269563 L63.9529083,7.20269563 C64.1509077,7.20269563 64.3241573,7.27771888 64.4734304,7.42776537 C64.6211565,7.57781186 64.6954064,7.75106142 64.6954064,7.95138122 L64.6954064,8.70084024 C65.3884046,8.12772452 66.1742151,7.68454596 67.0536113,7.37285145 C67.932234,7.06193037 68.8162708,6.90569639 69.7072685,6.90569639 C69.905268,6.90569639 70.079291,6.98071964 70.2270172,7.13076613 C70.3755168,7.28003919 70.4497666,7.45483561 70.4497666,7.65360854 L70.4497666,11.2067713 C70.4497666,11.3815678 70.4002668,11.5432158 70.301267,11.6924888 Z M90.7761935,28.2337223 C90.6145455,28.3953703 90.4358819,28.4750342 90.2378824,28.4750342 L85.7457689,28.4750342 C85.5462225,28.4750342 85.3752933,28.3953703 85.2252468,28.2344957 C85.0767472,28.0743946 85.0024974,27.895731 85.0024974,27.6977315 L85.0024974,15.3622084 C85.0024974,14.7194834 84.9653725,14.1765317 84.8926695,13.7325797 C84.8168728,13.2878543 84.6807482,12.9297536 84.4827487,12.6582778 C84.2847492,12.3875753 84.0063124,12.1957633 83.6474383,12.0843886 C83.2885643,11.9737873 82.8252764,11.9173265 82.2552544,11.9173265 C81.7107558,11.9173265 81.1546557,12.0287013 80.5846337,12.2514507 C80.0153851,12.4734267 79.4097851,12.7565041 78.7662868,13.1022298 L78.7662868,27.6977315 C78.7662868,27.895731 78.6912635,28.0743946 78.5443108,28.2344957 C78.3942643,28.3953703 78.2225616,28.4750342 78.0245621,28.4750342 L73.5309017,28.4750342 C73.3329022,28.4750342 73.1534652,28.3953703 72.993364,28.2337223 C72.831716,28.0736211 72.7512787,27.8941841 72.7512787,27.6961846 L72.7512787,7.9449617 C72.7512787,7.74696221 72.8255285,7.57371265 72.9740281,7.42521303 C73.1233012,7.27671341 73.2950039,7.20323704 73.4937768,7.20323704 L77.6517662,7.20323704 C77.8497657,7.20323704 78.0245621,7.27748685 78.1715148,7.42830678 C78.3207879,7.57757983 78.3942643,7.75160282 78.3942643,7.95114919 L78.3942643,8.8506547 C79.4097851,8.12749249 80.3742592,7.62321253 81.2900069,7.33549451 C82.2057545,7.04854994 83.2576268,6.90546436 84.4456238,6.90546436 C85.7821204,6.90546436 86.8773051,7.12821379 87.7311779,7.57371265 C88.5858241,8.01843808 89.253299,8.62017091 89.7359228,9.37427055 C90.2185465,10.1291436 90.5526707,11.0201413 90.7382952,12.0472637 C90.9239197,13.0743861 91.0175054,14.1695708 91.0175054,15.3328178 L91.0175054,27.6961846 C91.0175054,27.8941841 90.9362947,28.0736211 90.7761935,28.2337223 Z M112.438112,26.7670565 C112.438112,27.0648292 112.369276,27.2868052 112.234698,27.4353048 C112.0978,27.5838044 111.782238,27.7199291 111.287239,27.8436788 C110.222219,28.1167015 108.997097,28.3456384 107.611874,28.5304895 C106.225104,28.716114 104.814358,28.8089263 103.378861,28.8089263 C100.359369,28.8089263 98.0522109,27.9798034 96.4558399,26.3215577 C94.859469,24.6640853 94.0628304,22.3252163 94.0628304,19.3049506 L94.0628304,16.409208 C94.0628304,13.4894889 94.8277582,11.1745964 96.3630277,9.46762422 C97.8982972,7.75910515 100.235619,6.90523233 103.378861,6.90523233 C103.750884,6.90523233 104.215719,6.92998227 104.771819,6.97948214 C105.328692,7.02898202 105.879378,7.09085686 106.423877,7.16510667 L106.423877,0.7424981 C106.423877,0.544498607 106.499674,0.372022486 106.646626,0.22274943 C106.794353,0.07424981 106.968376,0 107.166375,0 L111.660035,0 C111.856488,0 112.035152,0.07424981 112.1968,0.22274943 C112.357674,0.372022486 112.438112,0.544498607 112.438112,0.7424981 L112.438112,26.7670565 Z M106.423877,12.0655941 C105.978378,12.0168677 105.471778,11.9735553 104.901756,11.935657 C104.332507,11.8985321 103.825907,11.8799696 103.378861,11.8799696 C102.711386,11.8799696 102.166114,11.9913443 101.746139,12.2140938 C101.324617,12.4360697 100.992039,12.7531783 100.742993,13.1607788 C100.496267,13.5691528 100.322244,14.0517765 100.223244,14.6086501 C100.125018,15.1655237 100.075518,15.7664831 100.075518,16.409208 L100.075518,19.3049506 C100.075518,19.9739723 100.125018,20.5857598 100.223244,21.1426334 C100.322244,21.7002804 100.496267,22.1821307 100.742993,22.5905047 C100.992039,22.9996521 101.324617,23.3152138 101.746139,23.5371898 C102.166114,23.7599392 102.711386,23.8713139 103.378861,23.8713139 C103.99761,23.8713139 104.573046,23.846564 105.105943,23.7970641 C105.637293,23.7475642 106.077378,23.6988378 106.423877,23.6493379 L106.423877,12.0655941 Z M131.0001,22.5719423 C131.0001,23.4389635 130.839225,24.2557114 130.519023,25.022186 C130.197274,25.789434 129.71001,26.4514948 129.05491,27.0083684 C128.401357,27.5660154 127.579968,28.0053268 126.593064,28.3263025 C125.604614,28.6472783 124.432859,28.8089263 123.074706,28.8089263 C122.555731,28.8089263 122.005818,28.7911373 121.425742,28.7532389 C120.845665,28.716114 120.25244,28.6612001 119.648387,28.5861769 C119.04356,28.5119271 118.456523,28.4253023 117.888821,28.3263025 C117.320346,28.2273028 116.803691,28.1167015 116.334216,27.9921784 C115.865514,27.8692021 115.630389,27.5838044 115.630389,27.1383056 L115.630389,24.1311883 C115.630389,23.9339622 115.692264,23.7669001 115.816014,23.630002 C115.939764,23.4946508 116.113013,23.4258151 116.335763,23.4258151 L116.483489,23.4258151 C116.979261,23.5000649 117.529174,23.5689006 118.13632,23.630002 C118.74192,23.6926503 119.34288,23.7483377 119.936878,23.7970641 C120.530877,23.846564 121.081563,23.8844623 121.588937,23.9092123 C122.095537,23.9339622 122.498497,23.9455637 122.795496,23.9455637 C123.686494,23.9455637 124.274305,23.828775 124.558929,23.5928771 C124.843553,23.3585262 124.985865,22.9934646 124.985865,22.4976924 C124.985865,22.2262166 124.886866,21.9725297 124.688866,21.7366319 C124.490093,21.5022809 124.131993,21.2354457 123.612244,20.9392199 L118.786006,18.1540786 C117.746509,17.5608535 116.935175,16.7990195 116.353552,15.8708969 C115.773475,14.9435477 115.483437,13.8723395 115.483437,12.6595926 C115.483437,10.7793709 116.102185,9.34928858 117.345096,8.37243952 C118.58646,7.39481702 120.489885,6.90523233 123.05537,6.90523233 C124.515617,6.90523233 125.746926,6.98644306 126.749298,7.14731765 C127.751671,7.30819224 128.723106,7.51237922 129.663603,7.75910515 C130.133852,7.88362827 130.36975,8.16825254 130.36975,8.61297796 L130.36975,11.6200953 C130.36975,12.0911175 130.157829,12.3254685 129.737853,12.3254685 L129.626479,12.3254685 C129.354229,12.301492 128.970605,12.2574061 128.474833,12.1955313 C127.979834,12.1344299 127.441523,12.0787425 126.8599,12.0284692 C126.27905,11.9797428 125.685051,11.935657 125.078678,11.8985321 C124.472304,11.8614072 123.93322,11.8436181 123.463744,11.8436181 C122.745223,11.8436181 122.238622,11.9178679 121.941623,12.0655941 C121.64385,12.2140938 121.496124,12.4994915 121.496124,12.9202404 C121.496124,13.1924897 121.594351,13.4206532 121.793124,13.6062777 C121.991896,13.7919022 122.275747,13.9960892 122.646996,14.2188386 L127.249711,16.8547069 C128.017733,17.3002057 128.642669,17.7526655 129.124519,18.2097659 C129.607916,18.6684132 129.99154,19.138662 130.275391,19.6205123 C130.560789,20.1039095 130.752601,20.5919473 130.8516,21.0869461 C130.9506,21.5827182 131.0001,22.0769435 131.0001,22.5719423 Z" id="Combined-Shape"></path>
            </g>
        </g>
    </g>
</svg>